<svg width="60" height="17" viewBox="0 0 60 17" fill="none" xmlns="http://www.w3.org/2000/svg">
<path d="M23.1833 13V4.6H26.3513C26.9273 4.6 27.4513 4.704 27.9233 4.912C28.4033 5.112 28.8193 5.4 29.1713 5.776C29.5233 6.152 29.7953 6.596 29.9873 7.108C30.1793 7.62 30.2753 8.184 30.2753 8.8C30.2753 9.416 30.1793 9.984 29.9873 10.504C29.7953 11.016 29.5233 11.46 29.1713 11.836C28.8273 12.204 28.4153 12.492 27.9353 12.7C27.4553 12.9 26.9273 13 26.3513 13H23.1833ZM24.1193 12.256L24.0113 12.088H26.2913C26.7313 12.088 27.1353 12.012 27.5033 11.86C27.8793 11.7 28.1993 11.476 28.4633 11.188C28.7353 10.892 28.9433 10.544 29.0873 10.144C29.2393 9.744 29.3153 9.296 29.3153 8.8C29.3153 8.304 29.2393 7.856 29.0873 7.456C28.9433 7.056 28.7353 6.712 28.4633 6.424C28.1913 6.128 27.8713 5.904 27.5033 5.752C27.1353 5.592 26.7313 5.512 26.2913 5.512H23.9753L24.1193 5.368V12.256ZM34.5012 13.12C33.8772 13.12 33.3212 12.984 32.8332 12.712C32.3532 12.44 31.9772 12.06 31.7052 11.572C31.4332 11.084 31.2972 10.524 31.2972 9.892C31.2972 9.404 31.3732 8.964 31.5252 8.572C31.6772 8.172 31.8892 7.824 32.1612 7.528C32.4412 7.232 32.7732 7.004 33.1572 6.844C33.5412 6.676 33.9572 6.592 34.4052 6.592C34.8292 6.592 35.2132 6.668 35.5572 6.82C35.9092 6.972 36.2092 7.184 36.4572 7.456C36.7132 7.72 36.9052 8.036 37.0332 8.404C37.1612 8.772 37.2172 9.176 37.2012 9.616L37.1892 10.036H31.9692L31.8372 9.28H36.5052L36.2892 9.484V9.196C36.2732 8.908 36.1892 8.632 36.0372 8.368C35.8852 8.096 35.6692 7.876 35.3892 7.708C35.1172 7.54 34.7892 7.456 34.4052 7.456C33.9572 7.456 33.5692 7.548 33.2412 7.732C32.9132 7.908 32.6612 8.172 32.4852 8.524C32.3092 8.876 32.2212 9.312 32.2212 9.832C32.2212 10.328 32.3172 10.76 32.5092 11.128C32.7012 11.488 32.9732 11.768 33.3252 11.968C33.6852 12.168 34.1172 12.268 34.6212 12.268C34.9172 12.268 35.2092 12.22 35.4972 12.124C35.7932 12.02 36.1172 11.82 36.4692 11.524L36.9372 12.172C36.7532 12.356 36.5332 12.52 36.2772 12.664C36.0212 12.8 35.7412 12.912 35.4372 13C35.1332 13.08 34.8212 13.12 34.5012 13.12ZM38.5035 13V4.12H39.4035V13H38.5035ZM43.8176 13.12C43.1936 13.12 42.6376 12.984 42.1496 12.712C41.6696 12.44 41.2936 12.06 41.0216 11.572C40.7496 11.084 40.6136 10.524 40.6136 9.892C40.6136 9.404 40.6896 8.964 40.8416 8.572C40.9936 8.172 41.2056 7.824 41.4776 7.528C41.7576 7.232 42.0896 7.004 42.4736 6.844C42.8576 6.676 43.2736 6.592 43.7216 6.592C44.1456 6.592 44.5296 6.668 44.8736 6.82C45.2256 6.972 45.5256 7.184 45.7736 7.456C46.0296 7.72 46.2216 8.036 46.3496 8.404C46.4776 8.772 46.5336 9.176 46.5176 9.616L46.5056 10.036H41.2856L41.1536 9.28H45.8216L45.6056 9.484V9.196C45.5896 8.908 45.5056 8.632 45.3536 8.368C45.2016 8.096 44.9856 7.876 44.7056 7.708C44.4336 7.54 44.1056 7.456 43.7216 7.456C43.2736 7.456 42.8856 7.548 42.5576 7.732C42.2296 7.908 41.9776 8.172 41.8016 8.524C41.6256 8.876 41.5376 9.312 41.5376 9.832C41.5376 10.328 41.6336 10.76 41.8256 11.128C42.0176 11.488 42.2896 11.768 42.6416 11.968C43.0016 12.168 43.4336 12.268 43.9376 12.268C44.2336 12.268 44.5256 12.22 44.8136 12.124C45.1096 12.02 45.4336 11.82 45.7856 11.524L46.2536 12.172C46.0696 12.356 45.8496 12.52 45.5936 12.664C45.3376 12.8 45.0576 12.912 44.7536 13C44.4496 13.08 44.1376 13.12 43.8176 13.12ZM48.6599 13V5.092H49.5599V13H48.6599ZM47.2439 7.6V6.736H51.1439V7.6H47.2439ZM54.9505 13.12C54.3265 13.12 53.7705 12.984 53.2825 12.712C52.8025 12.44 52.4265 12.06 52.1545 11.572C51.8825 11.084 51.7465 10.524 51.7465 9.892C51.7465 9.404 51.8225 8.964 51.9745 8.572C52.1265 8.172 52.3385 7.824 52.6105 7.528C52.8905 7.232 53.2225 7.004 53.6065 6.844C53.9905 6.676 54.4065 6.592 54.8545 6.592C55.2785 6.592 55.6625 6.668 56.0065 6.82C56.3585 6.972 56.6585 7.184 56.9065 7.456C57.1625 7.72 57.3545 8.036 57.4825 8.404C57.6105 8.772 57.6665 9.176 57.6505 9.616L57.6385 10.036H52.4185L52.2865 9.28H56.9545L56.7385 9.484V9.196C56.7225 8.908 56.6385 8.632 56.4865 8.368C56.3345 8.096 56.1185 7.876 55.8385 7.708C55.5665 7.54 55.2385 7.456 54.8545 7.456C54.4065 7.456 54.0185 7.548 53.6905 7.732C53.3625 7.908 53.1105 8.172 52.9345 8.524C52.7585 8.876 52.6705 9.312 52.6705 9.832C52.6705 10.328 52.7665 10.76 52.9585 11.128C53.1505 11.488 53.4225 11.768 53.7745 11.968C54.1345 12.168 54.5665 12.268 55.0705 12.268C55.3665 12.268 55.6585 12.22 55.9465 12.124C56.2425 12.02 56.5665 11.82 56.9185 11.524L57.3865 12.172C57.2025 12.356 56.9825 12.52 56.7265 12.664C56.4705 12.8 56.1905 12.912 55.8865 13C55.5825 13.08 55.2705 13.12 54.9505 13.12Z" fill="white"/>
<path d="M6.5 2.5H9.5C9.5 2.10218 9.34196 1.72064 9.06066 1.43934C8.77936 1.15804 8.39782 1 8 1C7.60218 1 7.22064 1.15804 6.93934 1.43934C6.65804 1.72064 6.5 2.10218 6.5 2.5ZM5.5 2.5C5.5 1.83696 5.76339 1.20107 6.23223 0.732233C6.70107 0.263392 7.33696 0 8 0C8.66304 0 9.29893 0.263392 9.76777 0.732233C10.2366 1.20107 10.5 1.83696 10.5 2.5H15.5C15.6326 2.5 15.7598 2.55268 15.8536 2.64645C15.9473 2.74021 16 2.86739 16 3C16 3.13261 15.9473 3.25979 15.8536 3.35355C15.7598 3.44732 15.6326 3.5 15.5 3.5H14.446L13.252 13.844C13.1676 14.5752 12.8173 15.2498 12.2679 15.7396C11.7184 16.2293 11.008 16.4999 10.272 16.5H5.728C4.99195 16.4999 4.28161 16.2293 3.73214 15.7396C3.18266 15.2498 2.8324 14.5752 2.748 13.844L1.554 3.5H0.5C0.367392 3.5 0.240215 3.44732 0.146447 3.35355C0.0526785 3.25979 0 3.13261 0 3C0 2.86739 0.0526785 2.74021 0.146447 2.64645C0.240215 2.55268 0.367392 2.5 0.5 2.5H5.5ZM3.741 13.73C3.79743 14.2174 4.03105 14.667 4.39742 14.9934C4.76379 15.3198 5.23735 15.5001 5.728 15.5H10.272C10.7627 15.5001 11.2362 15.3198 11.6026 14.9934C11.969 14.667 12.2026 14.2174 12.259 13.73L13.439 3.5H2.561L3.741 13.73ZM6.5 6C6.63261 6 6.75979 6.05268 6.85355 6.14645C6.94732 6.24021 7 6.36739 7 6.5V12.5C7 12.6326 6.94732 12.7598 6.85355 12.8536C6.75979 12.9473 6.63261 13 6.5 13C6.36739 13 6.24021 12.9473 6.14645 12.8536C6.05268 12.7598 6 12.6326 6 12.5V6.5C6 6.36739 6.05268 6.24021 6.14645 6.14645C6.24021 6.05268 6.36739 6 6.5 6ZM10 6.5C10 6.36739 9.94732 6.24021 9.85355 6.14645C9.75979 6.05268 9.63261 6 9.5 6C9.36739 6 9.24021 6.05268 9.14645 6.14645C9.05268 6.24021 9 6.36739 9 6.5V12.5C9 12.6326 9.05268 12.7598 9.14645 12.8536C9.24021 12.9473 9.36739 13 9.5 13C9.63261 13 9.75979 12.9473 9.85355 12.8536C9.94732 12.7598 10 12.6326 10 12.5V6.5Z" fill="white"/>
</svg>
